<?xml version="1.0" standalone="no"?>
<!DOCTYPE svg PUBLIC "-//W3C//DTD SVG 20010904//EN"
 "http://www.w3.org/TR/2001/REC-SVG-20010904/DTD/svg10.dtd">
<svg version="1.0" xmlns="http://www.w3.org/2000/svg"
 width="2048.000000pt" height="2048.000000pt" viewBox="0 0 2048.000000 2048.000000"
 preserveAspectRatio="xMidYMid meet">

<g transform="translate(0.000000,2048.000000) scale(0.100000,-0.100000)"
fill="#000000" stroke="none">
<path d="M9869 17826 c-2 -2 -55 -7 -117 -11 -63 -3 -126 -8 -140 -10 -15 -2
-61 -6 -102 -10 -169 -14 -463 -61 -704 -111 -656 -137 -1295 -377 -1911 -719
-454 -252 -1009 -653 -1350 -975 -306 -288 -492 -483 -696 -727 -165 -196
-401 -513 -395 -530 3 -7 0 -12 -6 -10 -24 5 -245 -340 -430 -673 -391 -699
-682 -1490 -847 -2296 -66 -321 -131 -832 -151 -1189 -43 -755 39 -1591 231
-2359 181 -721 455 -1413 801 -2016 197 -343 288 -490 399 -645 152 -211 192
-263 337 -445 198 -247 281 -339 517 -576 458 -458 891 -801 1420 -1122 649
-394 1426 -700 2165 -851 552 -113 852 -142 1410 -136 390 4 528 14 910 66
1006 136 2079 569 2980 1203 184 129 476 362 665 530 121 108 471 458 576 576
46 52 86 97 89 100 3 3 25 30 50 60 24 30 72 87 105 126 94 111 108 129 303
394 139 189 364 547 482 765 312 576 529 1110 714 1760 66 233 166 693 166
767 0 102 -63 162 -163 155 -49 -3 -62 -8 -92 -37 -40 -38 -44 -51 -80 -240
-104 -538 -328 -1227 -556 -1713 -43 -92 -79 -170 -79 -173 0 -15 -225 -429
-318 -584 -125 -210 -354 -553 -468 -701 -64 -84 -286 -350 -388 -464 -145
-164 -519 -528 -691 -674 -248 -209 -595 -464 -850 -623 -473 -296 -1003 -537
-1535 -699 -567 -172 -1019 -251 -1620 -280 -361 -17 -697 0 -1125 57 -1147
152 -2329 670 -3250 1423 -311 254 -618 547 -866 827 -273 307 -352 412 -632
829 -226 338 -315 492 -491 846 -451 906 -722 1904 -797 2934 -15 205 -15 740
0 960 50 716 176 1364 397 2035 138 419 406 1003 650 1417 148 250 388 611
480 722 7 9 53 66 101 126 172 217 331 394 563 626 222 223 267 265 450 421
155 133 435 343 590 443 531 343 844 506 1327 690 378 145 611 213 984 289
646 132 1217 170 1849 125 880 -63 1774 -318 2558 -730 74 -39 138 -67 145
-63 6 4 9 4 5 -1 -4 -4 29 -30 75 -58 427 -259 705 -457 1015 -726 74 -64 157
-135 185 -159 69 -57 293 -279 421 -417 615 -658 1115 -1449 1458 -2305 72
-180 139 -373 219 -630 64 -206 88 -295 162 -615 38 -161 73 -359 96 -540 12
-88 26 -177 31 -197 29 -101 180 -133 258 -54 31 31 36 42 40 96 10 131 -80
660 -174 1035 -54 212 -208 688 -305 940 -202 529 -545 1179 -857 1625 -233
332 -657 851 -683 835 -5 -4 -6 0 -4 8 6 13 -343 364 -515 518 -214 192 -540
444 -774 598 -349 231 -945 560 -1022 565 -12 0 -20 4 -18 7 4 7 -249 114
-416 177 -402 150 -951 291 -1375 352 -340 49 -607 67 -1006 68 -207 1 -378 0
-380 -2z m3951 -1030 c-7 -7 -13 -7 -20 0 -6 6 -3 10 10 10 13 0 16 -4 10 -10z
m1435 -1156 c3 -5 1 -10 -4 -10 -6 0 -11 5 -11 10 0 6 2 10 4 10 3 0 8 -4 11
-10z m-10854 -1013 c-10 -9 -11 -8 -5 6 3 10 9 15 12 12 3 -3 0 -11 -7 -18z
m-903 -6232 c-3 -3 -9 2 -12 12 -6 14 -5 15 5 6 7 -7 10 -15 7 -18z"/>
<path d="M6367 14982 l-308 -2 3 -38 3 -37 96 -7 c105 -7 189 -28 260 -63 170
-86 282 -270 310 -510 18 -150 19 -5461 1 -5670 -36 -430 -76 -601 -179 -757
-54 -83 -109 -132 -188 -168 -64 -29 -181 -58 -255 -62 -44 -3 -45 -4 -48 -40
l-3 -38 1025 0 1026 0 0 40 0 40 -54 0 c-78 0 -238 44 -341 93 -291 141 -490
434 -646 952 -122 403 -176 752 -209 1340 -9 164 -12 1372 -10 3635 0 838 1
845 20 820 11 -14 395 -587 855 -1275 460 -687 1013 -1513 1229 -1836 l393
-585 -78 -126 c-475 -764 -668 -1777 -538 -2824 39 -314 93 -549 202 -869 190
-556 523 -1057 954 -1433 226 -197 410 -325 634 -441 280 -145 542 -237 864
-304 269 -56 380 -68 702 -74 569 -11 1033 56 1578 228 156 49 455 158 505
184 24 13 29 30 94 367 37 194 77 398 88 453 53 275 67 352 68 371 0 17 -7 20
-39 21 -38 1 -40 -1 -50 -41 -16 -64 -113 -255 -182 -358 -323 -483 -747 -819
-1245 -986 -370 -125 -827 -147 -1249 -60 -641 131 -1229 577 -1646 1248 -217
349 -380 771 -488 1260 -78 354 -114 700 -114 1090 0 392 24 661 90 1025 41
230 134 565 197 716 l13 30 34 -53 c37 -56 571 -851 924 -1376 115 -172 244
-364 285 -427 197 -301 614 -915 621 -916 5 -1 20 -1 34 -1 14 0 41 0 60 1
l35 1 0 1358 c-1 746 -5 1373 -9 1392 -5 19 -9 26 -10 16 -1 -26 -12 -14 -15
18 -3 27 9 36 17 14 11 -32 16 318 16 1037 0 429 0 785 0 792 1 16 20 21 146
33 142 14 405 14 520 0 511 -64 969 -285 1292 -624 206 -216 316 -380 430
-641 49 -113 54 -120 83 -123 29 -3 30 -2 30 42 0 24 -18 244 -40 488 -22 244
-42 475 -45 513 -11 129 0 116 -143 163 -464 149 -931 250 -1357 293 -154 15
-565 19 -720 7 -71 -5 -145 -11 -162 -11 l-33 -2 -4 655 c-6 866 6 1129 65
1415 38 181 110 327 205 415 78 72 238 130 357 130 l57 0 0 40 c0 31 -4 40
-17 41 -18 0 -1972 0 -1985 -1 -7 0 -12 -70 -5 -70 29 0 184 -24 217 -34 264
-79 467 -270 629 -593 209 -418 360 -1174 365 -1822 l1 -194 -160 -32 c-567
-114 -1099 -379 -1505 -749 -58 -53 -108 -96 -112 -96 -4 0 -60 78 -123 173
-236 351 -1468 2196 -1738 2602 -153 231 -317 476 -364 545 -47 69 -106 158
-132 197 l-46 73 -120 1 c-394 3 -645 4 -918 1z m5223 -4542 c0 -1054 -4
-1700 -9 -1700 -6 0 -133 186 -285 413 -151 226 -359 538 -463 692 -103 154
-298 446 -433 650 -135 203 -269 402 -297 443 -29 40 -53 77 -53 82 0 12 180
251 249 330 149 172 362 358 564 493 104 69 334 180 462 221 105 34 242 74
258 75 4 1 7 -764 7 -1699z m-830 1556 c0 -2 -7 -7 -16 -10 -8 -3 -12 -2 -9 4
6 10 25 14 25 6z m-2126 -72 c3 -8 2 -12 -4 -9 -6 3 -10 10 -10 16 0 14 7 11
14 -7z m514 -1549 c-3 -3 -9 2 -12 12 -6 14 -5 15 5 6 7 -7 10 -15 7 -18z
m2532 10 c0 -8 -4 -15 -10 -15 -5 0 -7 7 -4 15 4 8 8 15 10 15 2 0 4 -7 4 -15z
m0 -35 c0 -5 -2 -10 -4 -10 -3 0 -8 5 -11 10 -3 6 -1 10 4 10 6 0 11 -4 11
-10z m-2697 -325 c-3 -9 -8 -14 -10 -11 -3 3 -2 9 2 15 9 16 15 13 8 -4z
m1321 -581 c3 -8 2 -12 -4 -9 -6 3 -10 10 -10 16 0 14 7 11 14 -7z m899 -194
c3 -11 3 -20 1 -20 -2 0 -8 9 -14 20 -6 11 -7 20 -2 20 6 0 12 -9 15 -20z
m-416 -532 c-3 -8 -6 -5 -6 6 -1 11 2 17 5 13 3 -3 4 -12 1 -19z m1384 -3915
c13 -16 12 -17 -3 -4 -10 7 -18 15 -18 17 0 8 8 3 21 -13z"/>
<path d="M17201 10188 c-131 -23 -217 -166 -178 -298 33 -112 112 -170 233
-170 85 0 135 22 186 78 80 89 75 233 -11 325 -51 56 -140 81 -230 65z"/>
</g>
</svg>
